<?xml version="1.0" encoding="utf-8"?>
<!-- Generator: Adobe Illustrator 26.1.0, SVG Export Plug-In . SVG Version: 6.00 Build 0)  -->
<svg version="1.1" id="icon" xmlns="http://www.w3.org/2000/svg" xmlns:xlink="http://www.w3.org/1999/xlink" x="0px" y="0px"
	 viewBox="0 0 512 512" style="enable-background:new 0 0 512 512;" xml:space="preserve">
<style type="text/css">
	.st0{fill:#1E1E1E;}
	.st1{fill:#4B4B18;stroke:#93930E;stroke-width:15;stroke-miterlimit:10;}
	.st2{fill:none;stroke:#D4D4D4;stroke-width:30;stroke-linecap:round;stroke-miterlimit:10;}
	.st3{fill:none;stroke:#FFFF99;stroke-width:30;stroke-linecap:round;stroke-miterlimit:10;}
</style>
<rect id="background" class="st0" width="512" height="512"/>
<path id="colorblock" class="st1" d="M430.3,399.4H81.7c-18,0-32.7-14.6-32.7-32.7V143.2c0-18,14.6-32.7,32.7-32.7h348.7
	c18,0,32.7,14.6,32.7,32.7v223.5C463,384.8,448.4,399.4,430.3,399.4z"/>
<g id="codelines">
	<line class="st2" x1="84.1" y1="64.7" x2="107.5" y2="64.7"/>
	<line class="st2" x1="175.6" y1="64" x2="360.5" y2="64"/>
	<line class="st3" x1="84.4" y1="159.3" x2="175.5" y2="159.3"/>
	<line class="st2" x1="83.6" y1="255.7" x2="267.5" y2="255.7"/>
	<line class="st2" x1="335.6" y1="255.7" x2="428.5" y2="255.7"/>
	<line class="st2" x1="83.6" y1="351.5" x2="175.5" y2="351.5"/>
	<line class="st2" x1="243.6" y1="351.5" x2="289.5" y2="351.5"/>
	<line class="st2" x1="358.6" y1="351.5" x2="428.5" y2="351.5"/>
	<line class="st2" x1="83.6" y1="446" x2="267.5" y2="446"/>
	<line class="st2" x1="335.6" y1="446" x2="382.5" y2="446"/>
</g>
</svg>
